<svg width="72" height="72" viewBox="0 0 72 72" fill="none" xmlns="http://www.w3.org/2000/svg">
<path d="M61.1971 0H10.7995C4.83509 0 0 4.83509 0 10.7995V61.1971C0 67.1614 4.83509 71.9965 10.7995 71.9965H61.1971C67.1614 71.9965 71.9965 67.1614 71.9965 61.1971V10.7995C71.9965 4.83509 67.1614 0 61.1971 0Z" fill="#F3F3F3"/>
<path d="M54.2787 56.2473C60.6065 50.3414 63.4189 40.4981 61.7315 31.0767H36.5608V41.4824H50.9039C50.3414 44.8572 48.3727 47.6696 45.5604 49.4977L54.2787 56.2473Z" fill="#4285F4"/>
<path d="M12.6558 47.9508C14.5056 51.5948 17.1585 54.7713 20.4145 57.2409C23.6705 59.7104 27.4446 61.4087 31.4524 62.2075C35.4602 63.0064 39.597 62.885 43.551 61.8525C47.5051 60.8201 51.1731 58.9035 54.2788 56.2473L45.5604 49.4976C38.1077 54.4193 25.7333 52.5912 21.5147 41.0605L12.6558 47.9508Z" fill="#34A853"/>
<path d="M21.5147 41.0605C20.3898 37.5451 20.3898 34.3108 21.5147 30.7954L12.6557 23.9051C9.42153 30.3735 8.4372 39.5137 12.6557 47.9508L21.5147 41.0605Z" fill="#FBBC02"/>
<path d="M21.5147 30.7954C24.6083 21.0927 37.8264 15.468 46.6854 23.7645L54.4194 16.1711C43.4512 5.6247 22.0772 6.04656 12.6558 23.9051L21.5147 30.7954Z" fill="#EA4335"/>
</svg>
